<svg xmlns="http://www.w3.org/2000/svg" width="38.638" height="26.749" viewBox="0 0 64.398 44.583">
  <g id="email" transform="translate(-3.375 -7.875)">
    <path id="Caminho_5" data-name="Caminho 5" d="M67.247,10.409,50.59,27.376a.3.3,0,0,0,0,.433L62.247,40.224a2.009,2.009,0,0,1,0,2.848,2.018,2.018,0,0,1-2.848,0L47.788,30.7a.318.318,0,0,0-.449,0l-2.833,2.879a12.464,12.464,0,0,1-8.886,3.746,12.714,12.714,0,0,1-9.072-3.855L23.825,30.7a.318.318,0,0,0-.449,0L11.765,43.073a2.018,2.018,0,0,1-2.848,0,2.009,2.009,0,0,1,0-2.848L20.574,27.809a.33.33,0,0,0,0-.433L3.9,10.409a.305.305,0,0,0-.526.217V44.574a4.968,4.968,0,0,0,4.954,4.954H62.82a4.968,4.968,0,0,0,4.954-4.954V10.626A.31.31,0,0,0,67.247,10.409Z" transform="translate(0 2.931)" fill="#06b4a5"/>
    <path id="Caminho_6" data-name="Caminho 6" d="M34.552,36.22A8.416,8.416,0,0,0,40.6,33.681L64.893,8.959a4.865,4.865,0,0,0-3.065-1.084H7.291A4.833,4.833,0,0,0,4.226,8.959L28.515,33.681A8.417,8.417,0,0,0,34.552,36.22Z" transform="translate(1.022 0)" fill="#06b4a5"/>
  </g>
</svg>
