<svg xmlns="http://www.w3.org/2000/svg" width="37.258" height="37.25" viewBox="0 0 37.258 37.25">
  <path id="instagram" d="M18.628,11.312a9.55,9.55,0,1,0,9.55,9.55A9.535,9.535,0,0,0,18.628,11.312Zm0,15.759a6.209,6.209,0,1,1,6.209-6.209,6.22,6.22,0,0,1-6.209,6.209ZM30.8,10.922a2.228,2.228,0,1,1-2.228-2.228A2.222,2.222,0,0,1,30.8,10.922Zm6.325,2.261c-.141-2.984-.823-5.627-3.009-7.8s-4.821-2.859-7.8-3.009c-3.075-.175-12.293-.175-15.369,0-2.976.141-5.619.823-7.8,3S.275,10.19.126,13.174c-.175,3.075-.175,12.293,0,15.369.141,2.984.823,5.627,3.009,7.8s4.821,2.859,7.8,3.009c3.075.175,12.293.175,15.369,0,2.984-.141,5.627-.823,7.8-3.009s2.859-4.821,3.009-7.8c.175-3.075.175-12.285,0-15.36Zm-3.973,18.66a6.286,6.286,0,0,1-3.541,3.541c-2.452.972-8.27.748-10.98.748s-8.536.216-10.98-.748a6.286,6.286,0,0,1-3.541-3.541c-.972-2.452-.748-8.27-.748-10.98s-.216-8.536.748-10.98A6.286,6.286,0,0,1,7.648,6.342c2.452-.972,8.27-.748,10.98-.748s8.536-.216,10.98.748a6.286,6.286,0,0,1,3.541,3.541c.972,2.452.748,8.27.748,10.98S34.122,29.4,33.149,31.843Z" transform="translate(0.005 -2.238)" fill="#fff"/>
</svg>
