<svg xmlns="http://www.w3.org/2000/svg" width="30.1154" height="21.175" viewBox="0 0 43.022 30.25">
  <path id="youtube" d="M43.173,9.233A5.406,5.406,0,0,0,39.37,5.4c-3.355-.9-16.809-.9-16.809-.9s-13.453,0-16.809.9a5.406,5.406,0,0,0-3.8,3.828c-.9,3.377-.9,10.422-.9,10.422s0,7.046.9,10.422a5.325,5.325,0,0,0,3.8,3.767c3.355.9,16.809.9,16.809.9s13.453,0,16.809-.9a5.325,5.325,0,0,0,3.8-3.767c.9-3.377.9-10.422.9-10.422s0-7.046-.9-10.422ZM18.161,26.052V13.259l11.244,6.4-11.244,6.4Z" transform="translate(-1.05 -4.5)" fill="#fff"/>
</svg>
