<svg xmlns="http://www.w3.org/2000/svg" width="76.09" height="87.637" viewBox="0 0 76.09 87.637">
  <path id="fogo" d="M26.122,89.565c-5.841-12.153-2.73-19.117,1.759-25.679a40.909,40.909,0,0,0,6.183-14.3,16.8,16.8,0,0,1,2.319,12.881c6.827-7.6,8.115-19.708,7.085-24.345C58.9,48.908,65.493,72.259,56.605,89.565,103.879,62.818,68.364,22.8,62.181,18.287c2.061,4.508,2.452,12.14-1.712,15.844C53.422,7.405,36,1.928,36,1.928c2.061,13.783-7.471,28.854-16.663,40.115-.323-5.5-.666-9.288-3.556-14.547C15.128,37.48,7.5,45.618,5.432,55.621,2.633,69.168,7.529,79.086,26.122,89.565Z" transform="translate(-4.701 -1.928)" fill="#06b4a5"/>
</svg>
