<svg xmlns="http://www.w3.org/2000/svg" width="45.642" height="39.936" viewBox="0 0 76.07 66.561">
  <path id="headfone" d="M23.772,40.285H21.395a9.517,9.517,0,0,0-9.509,9.527v9.473a9.518,9.518,0,0,0,9.509,9.527h2.377a4.76,4.76,0,0,0,4.754-4.763v-19A4.759,4.759,0,0,0,23.772,40.285Zm30.9,0H52.3a4.759,4.759,0,0,0-4.754,4.763v19A4.76,4.76,0,0,0,52.3,68.811h2.377a9.518,9.518,0,0,0,9.509-9.527V49.812a9.518,9.518,0,0,0-9.509-9.527ZM38.035,2.25C16.776,2.25.679,19.95,0,40.285v16.64A2.377,2.377,0,0,0,2.377,59.3H4.754a2.377,2.377,0,0,0,2.377-2.377V40.285a30.9,30.9,0,0,1,61.807,0v16.64A2.377,2.377,0,0,0,71.316,59.3h2.377a2.377,2.377,0,0,0,2.377-2.377V40.285C75.391,19.95,59.294,2.25,38.035,2.25Z" transform="translate(0 -2.25)" fill="#06b4a5"/>
</svg>
