<svg xmlns="http://www.w3.org/2000/svg" width="45.642" height="45.642" viewBox="0 0 76.07 76.071">
  <path id="medalha" d="M33.244,19.426,22.973,2.309A4.754,4.754,0,0,0,18.9,0H2.382A2.378,2.378,0,0,0,.434,3.741L16.966,27.359A30.749,30.749,0,0,1,33.244,19.426ZM73.689,0H57.175A4.754,4.754,0,0,0,53.1,2.309L42.827,19.426A30.758,30.758,0,0,1,59.1,27.357L75.637,3.741A2.378,2.378,0,0,0,73.689,0ZM38.035,23.772A26.149,26.149,0,1,0,64.185,49.921,26.15,26.15,0,0,0,38.035,23.772ZM51.782,47.137l-5.635,5.491,1.333,7.759A1.706,1.706,0,0,1,45,62.183l-6.97-3.662-6.968,3.662a1.705,1.705,0,0,1-2.474-1.8l1.333-7.759-5.635-5.491a1.706,1.706,0,0,1,.943-2.911l7.79-1.135,3.481-7.06a1.709,1.709,0,0,1,3.062,0l3.481,7.06,7.79,1.135a1.706,1.706,0,0,1,.943,2.911Z" transform="translate(0)" fill="#06b4a5"/>
</svg>
