<svg xmlns="http://www.w3.org/2000/svg" width="76.09" height="76.09" viewBox="0 0 76.09 76.09">
  <path id="precisao" d="M78.661,35.217h-7.5a30.986,30.986,0,0,0-25.79-25.79v-7.5H35.86v7.5a30.986,30.986,0,0,0-25.79,25.79h-7.5v9.511h7.5a30.986,30.986,0,0,0,25.79,25.79v7.5h9.511v-7.5a30.986,30.986,0,0,0,25.79-25.79h7.5V35.217Zm-17.178,0H54.07a14.305,14.305,0,0,0-8.7-8.7V19.106A21.471,21.471,0,0,1,61.483,35.217ZM40.616,44.729a4.756,4.756,0,1,1,4.756-4.756A4.756,4.756,0,0,1,40.616,44.729ZM35.86,19.106v7.413a14.3,14.3,0,0,0-8.7,8.7H19.749A21.471,21.471,0,0,1,35.86,19.106ZM19.749,44.729h7.413a14.3,14.3,0,0,0,8.7,8.7V60.84A21.471,21.471,0,0,1,19.749,44.729ZM45.371,60.84V53.427a14.305,14.305,0,0,0,8.7-8.7h7.413A21.47,21.47,0,0,1,45.371,60.84Z" transform="translate(-2.571 -1.928)" fill="#06b4a5"/>
</svg>
