<svg xmlns="http://www.w3.org/2000/svg" width="69.75" height="61.031" viewBox="0 0 69.75 61.031">
  <path id="carteira" d="M62.829,15.328H10.9a2.18,2.18,0,0,1,0-4.359H63.211a2.179,2.179,0,0,0,2.18-2.18A6.539,6.539,0,0,0,58.852,2.25H8.719A8.718,8.718,0,0,0,0,10.969V54.563a8.718,8.718,0,0,0,8.719,8.719H62.829a6.745,6.745,0,0,0,6.921-6.539V21.867A6.745,6.745,0,0,0,62.829,15.328ZM56.672,43.664A4.359,4.359,0,1,1,61.031,39.3,4.36,4.36,0,0,1,56.672,43.664Z" transform="translate(0 -2.25)" fill="#06b4a5"/>
</svg>
